Coordinates
version=1
nRows=16
nColumns=22
inDegrees=yes

Units are S.I. units (second, meters, Newtons, ...)
If the header above contains a line with 'inDegrees', this indicates whether rotational values are in degrees (yes) or radians (no).

endheader
time	pelvis_tilt	pelvis_list	pelvis_rotation	pelvis_tx	pelvis_ty	pelvis_tz	hip_flexion_r	hip_adduction_r	hip_rotation_r	knee_angle_r	ankle_angle_r	subtalar_angle_r	hip_flexion_l	hip_adduction_l	hip_rotation_l	knee_angle_l	ankle_angle_l	subtalar_angle_l	lumbar_extension	lumbar_bending	lumbar_rotation
      0.01000000	      1.78185116	     -0.43142109	     -1.38377924	     -1.75275659	      1.08388171	     -0.35550001	     -2.13841193	      0.31350511	     -3.64795354	    -10.00982212	     10.49374127	     -2.42265777	     -1.32367244	      0.16199683	     -1.26441741	    -11.27380489	     11.79513368	      0.00556911	     -4.32988353	     -1.58418291	     -6.45748557
      0.02000000	      1.78681795	     -0.43305414	     -1.37969539	     -1.75259359	      1.08387009	     -0.35533927	     -2.16226978	      0.32390027	     -3.65063165	     -9.99406222	     10.50062627	     -2.42422188	     -1.32398077	      0.15133693	     -1.25826363	    -11.30036769	     11.80167995	      0.00827505	     -4.32770761	     -1.57832807	     -6.42320058
      0.03000000	      1.81533229	     -0.45661770	     -1.38626410	     -1.75240188	      1.08388452	     -0.35514043	     -2.21613024	      0.35912964	     -3.62644226	     -9.97295329	     10.50688443	     -2.42560275	     -1.35179158	      0.11552790	     -1.27708052	    -11.32911687	     11.85002651	      0.02089704	     -4.35269805	     -1.54284750	     -6.37667365
      0.04000000	      1.82179626	     -0.45340558	     -1.37730298	     -1.75221345	      1.08387810	     -0.35494099	     -2.24112092	      0.36702533	     -3.63021175	     -9.96175768	     10.51147928	     -2.42464741	     -1.35168294	      0.10770027	     -1.26744224	    -11.35999121	     11.84881371	      0.02507444	     -4.35293449	     -1.54491925	     -6.32805990
      0.05000000	      1.85336451	     -0.46918070	     -1.38774399	     -1.75200999	      1.08390238	     -0.35470334	     -2.29145954	      0.39491383	     -3.60856378	     -9.95408006	     10.51956125	     -2.41870670	     -1.38410091	      0.07857201	     -1.29005414	    -11.38662130	     11.88624792	      0.04272178	     -4.38155505	     -1.52247363	     -6.25707036
      0.06000000	      1.85866105	     -0.46402278	     -1.37440789	     -1.75182673	      1.08389845	     -0.35449723	     -2.31352482	      0.40171766	     -3.61227943	     -9.94628702	     10.52417838	     -2.41747013	     -1.38121363	      0.07178421	     -1.27871373	    -11.41822294	     11.88330624	      0.04659229	     -4.38218787	     -1.52568409	     -6.20505753
      0.07000000	      1.86560386	     -0.46248525	     -1.36391087	     -1.75164634	      1.08389763	     -0.35428636	     -2.33440629	      0.41223323	     -3.61606365	     -9.94365276	     10.53182191	     -2.41639008	     -1.38149445	      0.06119611	     -1.27060855	    -11.44826800	     11.88752921	      0.05060687	     -4.38618546	     -1.52546894	     -6.14498284
      0.08000000	      1.88945060	     -0.47517872	     -1.37456986	     -1.75146707	      1.08391602	     -0.35404297	     -2.36655903	      0.43696255	     -3.60004116	     -9.95173468	     10.54396572	     -2.41322209	     -1.40803347	      0.03490085	     -1.29725021	    -11.46809113	     11.92193676	      0.06832219	     -4.41055960	     -1.50817461	     -6.06170924
      0.09000000	      1.89109666	     -0.47025288	     -1.35360453	     -1.75131406	      1.08391169	     -0.35383562	     -2.38242438	      0.44591220	     -3.60325796	     -9.94622631	     10.54925866	     -2.41322802	     -1.40351031	      0.02622321	     -1.28777068	    -11.49094692	     11.91850822	      0.07214971	     -4.41371496	     -1.51522356	     -6.01385751
      0.10000000	      1.89415371	     -0.46963377	     -1.33627030	     -1.75116097	      1.08390372	     -0.35363924	     -2.39644316	      0.45778693	     -3.61076869	     -9.94700667	     10.55939082	     -2.41499026	     -1.40263442	      0.01450720	     -1.27684253	    -11.51318522	     11.92060739	      0.07706476	     -4.41671332	     -1.51319915	     -5.95935015
      0.11000000	      1.89465467	     -0.47213934	     -1.31159040	     -1.75102895	      1.08388911	     -0.35344446	     -2.40498923	      0.47423297	     -3.61884338	     -9.95235494	     10.57140560	     -2.41850673	     -1.40046463	     -0.00214589	     -1.26726668	    -11.52877554	     11.92659878	      0.08226778	     -4.42123826	     -1.51074460	     -5.91304596
      0.12000000	      1.88908230	     -0.48853260	     -1.27570424	     -1.75092157	      1.08385798	     -0.35325730	     -2.40268061	      0.50672709	     -3.63978009	     -9.96639021	     10.58824287	     -2.43231278	     -1.38904113	     -0.03544036	     -1.25041103	    -11.54596133	     11.95240712	      0.09785779	     -4.42197879	     -1.49231271	     -5.88440550
      0.13000000	      1.86900267	     -0.50188589	     -1.22095337	     -1.75084614	      1.08380402	     -0.35310625	     -2.38632694	      0.53678891	     -3.67384854	     -9.97538626	     10.59953917	     -2.44880040	     -1.35479938	     -0.06541364	     -1.21234945	    -11.57064605	     11.96978547	      0.11378336	     -4.41005886	     -1.47565462	     -5.87523334
      0.14000000	      1.85944644	     -0.50363019	     -1.17596114	     -1.75076830	      1.08376534	     -0.35293636	     -2.38399137	      0.55453667	     -3.68956956	     -9.97858391	     10.60871484	     -2.45387145	     -1.33351091	     -0.08277042	     -1.18722254	    -11.59388726	     11.97088812	      0.11795933	     -4.40656857	     -1.47779751	     -5.84774435
      0.15000000	      1.81381252	     -0.52829091	     -1.08821576	     -1.75072092	      1.08366786	     -0.35283003	     -2.33485456	      0.59787269	     -3.76616530	     -9.99971800	     10.62311388	     -2.47328242	     -1.26612649	     -0.12648558	     -1.11146629	    -11.62197133	     12.00277710	      0.13090959	     -4.36512454	     -1.44749011	     -5.89465769
      0.16000000	      1.77270805	     -0.53394677	     -1.01517833	     -1.75066166	      1.08358357	     -0.35270796	     -2.29480274	      0.61997399	     -3.82296580	    -10.01105276	     10.63220594	     -2.48489150	     -1.20365981	     -0.14867546	     -1.04890287	    -11.65371657	     12.01262938	      0.14236610	     -4.32218507	     -1.44424790	     -5.90979402
